<?xml version="1.0" standalone="no"?>
<!DOCTYPE svg PUBLIC "-//W3C//DTD SVG 20010904//EN"
 "http://www.w3.org/TR/2001/REC-SVG-20010904/DTD/svg10.dtd">
<svg version="1.0" xmlns="http://www.w3.org/2000/svg"
 width="470.000000pt" height="470.000000pt" viewBox="0 0 470.000000 470.000000"
 preserveAspectRatio="xMidYMid meet">
<metadata>
Created by potrace 1.15, written by Peter Selinger 2001-2017
</metadata>
<g transform="translate(0.000000,470.000000) scale(0.100000,-0.100000)"
fill="#000000" stroke="none">
<path d="M0 4036 l0 -664 103 -59 c56 -33 177 -104 270 -158 92 -53 167 -98
167 -100 0 -2 -16 -13 -35 -25 l-34 -21 -48 27 c-26 15 -129 75 -228 132 -99
58 -183 107 -187 109 -5 2 -8 -6 -8 -19 0 -18 15 -31 63 -59 34 -20 131 -75
215 -124 l152 -88 -37 -23 c-44 -26 -22 -34 -236 90 -82 47 -150 86 -153 86
-2 0 -4 -9 -4 -20 0 -18 84 -72 281 -183 l33 -18 -32 -20 c-18 -10 -38 -19
-45 -19 -7 0 -63 29 -125 64 -106 61 -112 63 -112 41 0 -19 17 -33 95 -77 52
-29 95 -56 95 -59 0 -3 -18 -14 -39 -24 l-39 -17 -56 32 -56 31 0 -23 c0 -18
9 -29 35 -41 19 -9 35 -20 35 -25 0 -5 -16 -16 -35 -25 l-35 -17 0 -703 0
-703 162 -94 c90 -51 211 -121 270 -154 60 -34 108 -64 108 -69 0 -4 -16 -15
-36 -25 -42 -19 -5 -36 -312 142 -101 58 -186 106 -189 106 -2 0 -3 -10 -1
-22 2 -17 51 -50 211 -142 114 -66 207 -124 207 -128 0 -5 -15 -16 -34 -25
l-35 -16 -175 100 c-157 90 -176 99 -176 79 0 -18 29 -39 155 -112 153 -88
154 -89 132 -106 -41 -32 -54 -31 -141 21 -46 27 -98 57 -115 65 -30 16 -31
16 -31 -6 0 -18 17 -32 82 -68 120 -66 117 -63 74 -89 l-36 -23 -54 31 c-63
37 -66 37 -66 11 0 -11 12 -26 29 -35 44 -22 45 -31 6 -55 l-35 -22 0 -349 c0
-338 1 -349 19 -349 17 0 530 287 555 311 8 7 86 -29 86 -41 0 -3 -24 -18 -53
-34 -28 -15 -131 -74 -227 -130 -159 -92 -172 -101 -142 -104 27 -3 72 19 250
122 l216 125 39 -22 c46 -26 59 -14 -147 -132 -145 -83 -155 -90 -124 -93 28
-2 65 14 192 88 l158 90 39 -22 39 -22 -112 -65 c-107 -62 -111 -66 -80 -69
26 -3 56 10 131 53 l99 56 36 -17 c20 -10 36 -21 36 -25 0 -4 -23 -20 -52 -36
l-52 -28 35 -3 c21 -3 49 4 75 18 l40 22 42 -21 c79 -40 91 -36 391 138 l275
158 33 -19 c18 -11 33 -23 33 -26 0 -4 -79 -52 -175 -107 -96 -55 -198 -115
-227 -132 l-53 -33 37 0 c29 0 82 26 253 124 l216 125 36 -21 c43 -26 54 -17
-152 -136 -137 -80 -147 -87 -117 -90 26 -3 65 15 191 88 l159 90 36 -21 c20
-11 36 -22 36 -24 0 -2 -50 -32 -111 -67 -108 -61 -110 -63 -75 -66 29 -3 53
7 119 47 110 66 111 67 153 41 l36 -23 -54 -31 -53 -31 33 -3 c20 -2 47 5 73
20 l40 22 42 -22 c78 -41 89 -37 390 136 l274 158 37 -20 c20 -12 36 -23 36
-26 -1 -3 -96 -59 -212 -125 -257 -146 -254 -144 -208 -145 27 0 74 23 195 93
88 51 185 107 215 125 l56 31 38 -23 38 -23 -171 -99 c-161 -92 -170 -99 -137
-102 29 -3 62 13 191 88 l156 91 40 -23 39 -22 -112 -65 c-105 -62 -111 -66
-81 -69 25 -2 57 10 132 53 l99 56 36 -17 c20 -10 36 -21 36 -25 0 -4 -23 -20
-52 -36 l-52 -28 33 -3 c21 -2 50 5 76 19 l42 23 37 -22 c75 -44 98 -37 357
114 129 75 252 146 273 159 l39 22 34 -19 c18 -11 33 -23 33 -27 0 -3 -102
-65 -226 -136 -209 -120 -224 -130 -191 -133 30 -3 69 16 249 121 l213 124 39
-20 c49 -24 58 -15 -149 -135 -137 -80 -147 -87 -117 -90 26 -3 65 15 191 88
l159 90 36 -21 c20 -11 36 -22 36 -24 0 -2 -50 -32 -111 -67 -106 -60 -109
-63 -77 -66 27 -2 56 9 131 52 53 31 100 56 104 56 4 0 23 -9 42 -21 l35 -21
-55 -31 -54 -32 33 -3 c20 -2 47 5 73 20 l40 22 42 -22 c82 -43 77 -66 77 328
l0 349 -142 84 c-79 47 -200 117 -270 157 -71 40 -128 75 -128 79 0 3 16 15
36 26 27 14 39 16 53 8 53 -33 419 -243 434 -249 13 -4 17 -1 17 14 0 15 -38
42 -162 113 -90 51 -187 108 -217 125 l-53 32 41 21 41 21 152 -88 c213 -124
198 -117 198 -90 0 19 -27 38 -156 112 l-156 89 38 23 38 23 56 -31 c30 -17
83 -48 118 -69 61 -37 62 -37 62 -15 0 19 -19 35 -96 81 l-96 57 28 19 c39 25
48 24 110 -12 l54 -30 0 23 c0 17 -10 29 -35 42 -19 11 -35 22 -35 25 0 4 16
15 35 25 l35 19 0 702 0 702 -177 103 c-308 178 -363 211 -363 214 0 2 16 13
35 25 l35 20 57 -33 c32 -18 135 -77 228 -131 94 -54 173 -100 178 -102 4 -2
7 6 7 19 0 19 -33 42 -210 143 -115 66 -210 123 -210 127 0 3 15 15 34 26 l33
20 164 -95 c197 -114 192 -112 187 -83 -2 17 -37 42 -145 104 -79 45 -148 87
-153 92 -7 7 2 16 29 29 l40 18 93 -53 c51 -30 103 -60 116 -68 21 -13 22 -13
22 10 0 20 -16 33 -95 78 l-96 54 23 18 c39 30 54 30 107 -2 61 -36 61 -36 61
-10 0 13 -13 28 -35 41 -39 23 -38 32 6 54 l29 16 0 664 c0 437 -3 665 -10
665 -5 0 -10 -11 -10 -25 l0 -26 -43 26 c-27 15 -59 25 -83 25 l-39 0 82 -48
83 -47 0 -42 c0 -24 -3 -43 -6 -43 -3 0 -76 41 -161 90 -130 75 -163 90 -192
88 -33 -3 -23 -10 148 -108 101 -58 190 -110 198 -115 10 -7 13 -25 11 -53
l-3 -41 -275 159 c-151 88 -280 160 -287 160 -6 0 -51 -23 -100 -51 -205 -119
-466 -269 -469 -269 -11 0 1 82 13 92 9 7 99 61 202 120 176 102 184 108 145
108 -30 0 -61 -12 -130 -53 -122 -72 -221 -127 -229 -127 -3 0 -5 19 -3 42 3
42 4 43 83 88 l80 45 -37 3 c-26 2 -48 -4 -77 -23 -23 -14 -42 -21 -42 -15 -1
5 -2 16 -3 22 0 7 -9 14 -19 16 -16 3 -17 -16 -18 -277 -1 -155 -2 -287 -3
-293 -2 -15 -22 -12 -53 8 -23 14 -23 15 -23 289 0 268 0 275 -20 275 -19 0
-20 -7 -20 -260 0 -143 -3 -260 -6 -260 -4 0 -22 9 -40 21 l-34 21 0 239 c0
232 -1 239 -20 239 -19 0 -20 -7 -20 -225 0 -124 -3 -225 -7 -225 -5 0 -23 9
-40 20 l-33 20 0 205 c0 198 -1 205 -20 205 -19 0 -20 -7 -20 -190 0 -104 -3
-190 -7 -190 -5 0 -23 9 -40 20 l-33 20 0 170 c0 144 -2 170 -15 170 -13 0
-15 -24 -15 -160 0 -88 -2 -160 -4 -160 -3 0 -21 9 -40 21 l-36 21 0 139 c0
132 -1 139 -20 139 -19 0 -20 -7 -20 -138 l0 -138 -40 -23 -40 -22 0 160 c0
154 -1 161 -20 161 -19 0 -20 -7 -20 -173 l0 -173 -29 -17 c-16 -9 -34 -17
-40 -17 -8 0 -11 59 -11 190 0 183 -1 190 -20 190 -19 0 -20 -7 -20 -207 l0
-208 -31 -17 c-17 -10 -35 -18 -40 -18 -6 0 -9 8 -8 18 1 9 1 110 0 225 -1
177 -3 207 -16 207 -13 0 -15 -32 -16 -222 -1 -123 -2 -231 -2 -241 0 -11 -15
-26 -38 -38 l-39 -19 0 260 c0 253 -1 260 -20 260 -20 0 -20 -7 -20 -274 l0
-274 -36 -21 c-19 -12 -37 -21 -40 -21 -2 0 -4 133 -4 295 0 288 0 295 -20
295 -15 0 -20 -7 -20 -25 l0 -26 -43 26 c-27 15 -59 25 -83 25 l-39 0 82 -48
83 -47 0 -42 c0 -24 -3 -43 -6 -43 -3 0 -76 41 -161 90 -128 74 -163 90 -191
88 -33 -3 -30 -5 69 -62 57 -33 146 -84 197 -114 l92 -54 0 -45 0 -45 -43 25
c-23 13 -145 84 -270 157 -126 73 -236 134 -246 137 -10 2 -132 -62 -294 -156
-152 -89 -279 -161 -282 -161 -3 0 -5 18 -5 39 0 49 -1 48 223 176 161 92 172
100 141 103 -28 3 -62 -13 -182 -82 -193 -111 -184 -109 -180 -55 3 42 4 44
82 88 l78 46 -35 3 c-25 2 -48 -5 -76 -23 -23 -14 -42 -23 -42 -20 -1 3 -3 10
-4 15 -1 6 -3 15 -4 20 0 6 -8 10 -16 10 -18 0 -17 16 -16 -322 1 -148 -2
-268 -6 -268 -5 0 -23 9 -40 20 l-33 20 0 275 c0 268 0 275 -20 275 -19 0 -20
-7 -20 -260 0 -143 -3 -260 -6 -260 -4 0 -22 9 -40 21 l-34 21 0 239 c0 232
-1 239 -20 239 -19 0 -20 -7 -20 -225 0 -124 -3 -225 -7 -225 -5 0 -23 9 -40
20 l-33 20 0 205 c0 198 -1 205 -20 205 -19 0 -20 -7 -20 -190 0 -104 -3 -190
-7 -190 -5 0 -23 9 -40 20 l-33 20 0 170 c0 144 -2 170 -15 170 -13 0 -15 -24
-16 -147 -1 -82 -1 -154 0 -160 2 -17 -2 -16 -43 8 l-36 21 0 139 c0 132 -1
139 -20 139 -19 0 -20 -7 -20 -138 l0 -138 -40 -23 -40 -22 0 160 c0 154 -1
161 -20 161 -19 0 -20 -7 -20 -173 l0 -173 -29 -17 c-16 -9 -34 -17 -40 -17
-8 0 -11 59 -11 190 0 183 -1 190 -20 190 -19 0 -20 -7 -20 -207 l0 -208 -31
-17 c-17 -10 -35 -18 -40 -18 -6 0 -9 8 -8 18 1 9 1 110 0 225 -1 177 -3 207
-16 207 -13 0 -15 -33 -15 -240 l0 -240 -40 -20 -40 -20 0 260 c0 253 -1 260
-20 260 -20 0 -20 -7 -20 -275 l0 -275 -40 -20 -40 -20 0 295 c0 190 -4 295
-10 295 -7 0 -10 -228 -10 -664z m2103 429 l227 -130 0 -42 c0 -24 -3 -43 -7
-43 -5 0 -127 69 -273 154 l-265 153 -3 47 -3 47 48 -28 c27 -15 151 -86 276
-158z m-363 133 l-1 -43 -260 -150 c-144 -82 -267 -152 -276 -153 -11 -3 -14
5 -11 38 l3 42 155 90 c85 50 205 119 265 154 61 35 113 64 118 64 4 0 7 -19
7 -42z m2350 0 c0 -41 -2 -44 -53 -72 -28 -16 -148 -85 -265 -153 -117 -68
-217 -123 -222 -123 -4 0 -8 19 -7 42 l2 41 265 154 c146 84 268 153 273 153
4 0 7 -19 7 -42z m328 -113 l261 -150 1 -42 c0 -24 -3 -43 -7 -43 -5 0 -127
70 -273 154 l-265 154 -3 42 c-3 32 0 41 11 38 8 -1 132 -70 275 -153z m-2685
-66 c-4 -4 -35 -23 -68 -42 -33 -18 -151 -86 -263 -150 -111 -65 -205 -117
-207 -117 -3 0 -5 18 -5 39 0 45 5 50 135 124 44 25 154 88 245 141 l165 95 3
-41 c2 -22 0 -44 -5 -49z m330 -68 l267 -153 0 -45 c0 -25 -4 -43 -8 -41 -4 2
-128 73 -275 158 l-267 154 0 44 c0 24 4 42 8 40 5 -1 129 -72 275 -157z
m2027 115 l0 -44 -260 -151 c-143 -83 -266 -152 -273 -154 -16 -3 -21 46 -8
72 6 11 44 38 83 60 40 22 159 89 263 150 105 61 191 111 193 111 1 0 2 -20 2
-44z m193 -39 c78 -46 199 -116 270 -156 l127 -73 0 -45 c0 -24 -3 -42 -7 -40
-5 2 -128 73 -275 157 l-268 154 0 43 c0 24 2 43 5 43 3 0 69 -37 148 -83z
m-3658 -58 c20 -12 33 -25 28 -29 -4 -5 -127 -76 -271 -160 l-264 -152 -34 18
c-19 10 -33 22 -31 27 2 6 519 312 534 316 1 1 18 -9 38 -20z m1177 -3 l37
-22 -271 -157 c-158 -91 -278 -155 -287 -152 -9 3 -26 13 -39 23 -22 17 -21
18 245 174 148 86 270 156 273 157 3 0 22 -10 42 -23z m1172 3 c20 -12 36 -22
36 -24 0 -3 -261 -156 -435 -256 l-108 -61 -33 18 c-19 10 -34 22 -34 25 0 4
80 53 178 110 97 56 218 126 267 155 50 29 91 53 92 54 1 0 18 -9 37 -21z
m1173 -50 c-23 -14 -62 -37 -87 -51 -62 -34 -228 -130 -328 -190 -86 -50 -99
-52 -140 -20 -23 18 -23 18 249 174 l272 157 38 -22 38 -22 -42 -26z m-3403
-20 c20 -12 36 -22 36 -24 0 -2 -26 -18 -57 -36 -32 -17 -71 -40 -88 -49 -16
-9 -113 -65 -213 -123 l-184 -106 -40 20 c-22 11 -36 24 -32 28 5 5 103 62
219 128 116 66 233 134 260 151 28 17 53 31 57 31 4 1 23 -8 42 -20z m1172 0
c19 -11 34 -22 34 -24 0 -4 -84 -53 -338 -199 -200 -115 -203 -116 -232 -101
-16 8 -31 19 -34 24 -3 5 101 71 231 147 131 75 252 145 268 155 37 23 31 23
71 -2z m1179 0 c33 -20 34 -23 18 -33 -25 -17 -126 -76 -341 -200 l-184 -105
-40 20 c-22 11 -37 23 -34 26 8 9 530 311 538 312 4 1 23 -9 43 -20z m1174 0
c18 -11 30 -24 25 -28 -5 -5 -127 -77 -272 -160 l-263 -152 -38 23 -39 23 126
73 c70 40 192 110 272 157 80 46 147 84 150 85 3 0 20 -9 39 -21z m-3410 -66
c17 -10 30 -22 28 -27 -1 -4 -108 -69 -237 -143 -129 -74 -249 -143 -265 -153
-31 -19 -31 -19 -69 4 l-39 23 94 55 c334 194 445 258 451 258 3 0 20 -8 37
-17z m1176 0 c38 -18 44 -30 20 -39 -9 -4 -131 -73 -272 -155 l-256 -148 -38
22 c-21 12 -36 24 -34 26 8 8 530 309 537 310 4 1 23 -7 43 -16z m1180 -4 l36
-21 -88 -51 c-48 -28 -171 -99 -273 -158 l-185 -107 -38 21 c-20 11 -34 24
-30 28 12 11 527 309 535 309 4 0 23 -10 43 -21z m1170 4 c19 -9 35 -20 35
-23 0 -4 -109 -69 -242 -145 -134 -77 -256 -147 -273 -156 -29 -17 -31 -17
-68 5 l-37 23 187 108 c104 60 224 130 268 156 44 26 83 48 87 48 4 1 23 -7
43 -16z m-3404 -70 c16 -10 29 -20 29 -23 0 -3 -120 -74 -266 -158 -192 -111
-272 -152 -287 -148 -26 6 -64 32 -57 39 3 2 79 47 170 99 91 53 208 121 260
151 52 31 101 56 108 57 8 0 27 -8 43 -17z m1174 0 c19 -9 35 -19 35 -22 0 -3
-28 -21 -63 -40 -34 -19 -154 -87 -266 -153 -112 -65 -208 -118 -215 -118 -6
1 -26 9 -45 19 l-35 19 80 46 c43 25 162 95 264 155 102 60 190 110 197 110 7
1 28 -7 48 -16z m1174 0 c17 -10 31 -20 31 -23 0 -3 -120 -74 -266 -158 -197
-114 -271 -152 -287 -148 -25 7 -63 34 -56 39 2 3 101 60 219 128 118 68 235
136 259 151 53 33 60 34 100 11z m1176 0 c19 -9 35 -19 35 -22 0 -3 -37 -27
-83 -52 -45 -25 -166 -94 -270 -154 l-187 -108 -40 18 c-24 11 -37 22 -32 27
12 12 525 307 534 308 4 0 23 -8 43 -17z m-3375 -88 c0 -5 -139 -88 -378 -225
l-164 -94 -34 19 c-19 10 -34 21 -34 24 0 8 24 23 305 185 l230 133 38 -19
c20 -10 37 -20 37 -23z m1170 -3 c0 -4 -19 -18 -43 -31 -23 -13 -143 -82 -265
-153 l-224 -130 -39 17 c-21 10 -39 21 -39 24 0 3 53 36 118 73 64 37 186 108
271 157 l153 89 34 -20 c19 -11 34 -23 34 -26z m1159 -12 c-25 -17 -243 -145
-407 -238 l-113 -64 -34 16 c-19 9 -36 20 -38 24 -3 4 117 77 267 163 l271
156 38 -21 39 -21 -23 -15z m1191 12 c0 -4 -51 -36 -113 -71 -61 -36 -181
-105 -265 -154 l-154 -89 -39 17 c-21 10 -39 21 -39 24 0 3 122 76 272 162
l271 157 33 -20 c19 -11 34 -23 34 -26z m-4350 -195 l265 -153 3 -42 c2 -23 0
-42 -5 -42 -4 0 -30 13 -58 28 -110 61 -461 265 -472 274 -14 11 -18 88 -5 88
4 0 126 -69 272 -153z m858 114 l3 -39 -128 -75 c-199 -116 -412 -237 -418
-237 -3 0 -5 19 -5 43 l1 42 262 152 c144 83 267 152 273 152 5 1 11 -16 12
-38z m83 22 l29 -17 0 -318 0 -318 -37 23 -38 24 -1 312 c-1 199 2 311 8 311
5 0 23 -8 39 -17z m1089 -296 l0 -313 -40 -23 -40 -22 0 316 0 315 33 20 c17
11 35 20 40 20 4 0 7 -141 7 -313z m320 160 l265 -153 3 -42 c2 -23 -1 -42 -5
-42 -8 0 -140 75 -428 241 l-110 64 -3 43 c-2 23 0 42 5 42 4 0 127 -69 273
-153z m856 112 l-1 -42 -265 -153 c-146 -84 -268 -153 -272 -154 -5 0 -8 19
-8 43 l1 42 262 152 c144 83 267 152 273 152 7 1 11 -16 10 -40z m85 24 l29
-17 0 -318 0 -318 -37 23 -38 24 -3 312 c-2 223 1 311 9 311 6 0 24 -8 40 -17z
m1089 -296 l0 -313 -40 -23 -40 -22 0 316 0 315 33 20 c17 11 35 20 40 20 4 0
7 -141 7 -313z m-3290 -104 c0 -172 -3 -313 -7 -313 -5 0 -23 9 -40 20 l-33
20 0 315 0 316 40 -22 40 -23 0 -313z m820 40 l0 -318 -31 -17 c-17 -10 -34
-18 -39 -18 -4 0 -9 139 -9 310 l-2 309 38 25 c21 14 39 25 41 25 1 1 2 -142
2 -316z m1530 -40 c0 -172 -3 -313 -7 -313 -5 0 -23 9 -40 20 l-33 20 0 315 0
316 40 -22 40 -23 0 -313z m820 40 l0 -318 -31 -17 c-17 -10 -35 -18 -40 -18
-5 0 -9 128 -9 310 l0 310 38 24 c20 14 38 25 40 25 1 1 2 -142 2 -316z
m-4207 57 l217 -124 0 -43 c0 -24 -2 -43 -5 -43 -2 0 -75 41 -162 91 -87 50
-209 120 -270 156 l-113 65 0 45 0 45 58 -34 c33 -18 156 -89 275 -158z m804
147 l1 -44 -215 -124 c-119 -68 -242 -139 -274 -157 l-59 -34 0 45 0 44 113
66 c61 36 182 106 267 155 85 50 157 91 160 91 3 1 6 -19 7 -42z m353 -312 c0
-173 -3 -315 -7 -315 -5 0 -23 9 -40 20 l-33 20 0 315 0 315 40 -20 40 -20 0
-315z m590 41 l-1 -315 -35 -20 c-19 -12 -37 -21 -40 -21 -2 0 -4 141 -4 314
l0 314 33 21 c17 11 35 21 40 21 4 0 7 -141 7 -314z m578 139 l242 -140 0 -42
c0 -24 -2 -43 -5 -43 -5 0 3 -5 -307 175 l-238 137 0 44 0 44 33 -17 c19 -10
142 -81 275 -158z m830 130 c0 -27 -6 -40 -26 -54 -23 -15 -338 -199 -479
-279 l-43 -24 0 45 0 44 267 156 c148 85 271 153 274 151 4 -2 7 -20 7 -39z
m352 -310 c0 -173 -3 -315 -6 -315 -4 0 -22 9 -40 21 l-34 21 0 314 0 314 40
-20 40 -20 0 -315z m589 41 l0 -314 -35 -21 c-19 -12 -37 -21 -40 -21 -2 0 -4
141 -4 314 l0 314 33 20 c17 11 35 21 39 21 4 1 7 -140 7 -313z m-2855 223
l36 -21 0 -314 c0 -173 -3 -314 -6 -314 -4 0 -22 9 -40 21 l-34 21 0 314 c0
173 2 314 4 314 3 0 21 -9 40 -21z m386 -292 l0 -313 -40 -23 -40 -22 2 317 3
317 30 18 c17 10 33 18 38 18 4 1 7 -140 7 -312z m1999 -42 c0 -173 -2 -315
-6 -315 -3 0 -21 9 -39 21 l-34 21 0 314 0 314 40 -20 39 -20 0 -315z m351 40
l0 -315 -40 -20 -40 -20 0 314 0 314 33 21 c17 11 35 21 40 21 4 0 7 -142 7
-315z m-120 -65 l0 -320 -40 -20 -40 -20 0 315 0 315 38 24 c20 14 38 25 40
25 1 1 2 -143 2 -319z m-4001 208 c97 -56 218 -126 268 -155 l93 -54 0 -45 0
-45 -58 33 c-32 18 -156 89 -275 158 l-217 125 0 43 c0 23 3 42 6 42 4 0 86
-46 183 -102z m947 60 l-1 -42 -120 -69 c-66 -38 -139 -80 -162 -93 -23 -13
-92 -53 -152 -89 l-111 -64 0 47 c0 47 0 47 58 78 31 18 151 86 267 153 115
66 212 121 216 121 3 0 6 -19 5 -42z m549 25 l35 -17 0 -318 c0 -253 -3 -318
-12 -312 -7 4 -25 16 -40 26 l-27 19 -1 309 c0 171 2 310 4 310 3 0 21 -8 41
-17z m155 -298 l0 -315 -40 -20 -40 -20 0 315 0 315 33 20 c17 11 35 20 40 20
4 0 7 -142 7 -315z m783 164 c144 -83 266 -154 270 -158 5 -5 7 -27 5 -49 l-3
-41 -180 105 c-99 57 -222 128 -272 156 l-93 53 0 43 c0 23 2 42 6 42 3 0 123
-68 267 -151z m865 111 l2 -39 -118 -69 c-64 -38 -188 -110 -274 -160 l-158
-91 0 50 c0 27 4 49 10 49 5 0 32 13 58 30 85 52 466 270 473 270 3 0 6 -18 7
-40z m547 23 l35 -17 0 -318 c0 -253 -3 -318 -12 -312 -7 4 -25 16 -41 26
l-27 20 0 309 c1 170 3 309 5 309 2 0 20 -8 40 -17z m-3800 -248 c337 -194
310 -175 313 -223 2 -23 0 -42 -3 -42 -6 0 -137 74 -445 253 l-95 55 -3 47 -3
48 38 -23 c21 -12 110 -64 198 -115z m905 86 c0 -38 -1 -39 -92 -92 -51 -29
-173 -99 -271 -156 -98 -57 -180 -103 -182 -103 -3 0 -5 19 -5 43 l0 43 268
155 c147 86 270 154 275 152 4 -2 7 -21 7 -42z m1350 -31 c69 -40 141 -82 160
-93 261 -148 250 -139 250 -188 0 -21 -3 -39 -7 -38 -5 0 -127 69 -273 153
l-265 152 -3 48 c-2 26 0 46 5 43 4 -2 64 -37 133 -77z m998 32 l3 -39 -267
-154 c-147 -85 -271 -155 -276 -157 -4 -2 -8 16 -8 40 l0 44 223 128 c122 71
242 141 267 156 25 15 47 26 51 24 3 -1 6 -20 7 -42z m-3394 -141 c44 -26 165
-96 269 -156 l187 -107 0 -45 0 -45 -68 38 c-37 20 -78 45 -92 54 -14 9 -107
63 -207 120 l-183 104 0 43 c0 24 3 43 6 43 3 0 43 -22 88 -49z m1044 7 l-3
-42 -270 -157 -270 -157 -3 35 c-2 19 -1 41 1 47 4 10 240 150 502 298 43 24
46 23 43 -24z m1497 -116 l260 -151 3 -45 c2 -25 1 -46 -2 -46 -3 0 -38 20
-78 43 -40 24 -162 95 -270 158 l-198 114 0 44 c0 30 4 42 13 38 6 -3 129 -73
272 -155z m851 116 l-1 -43 -270 -156 -270 -157 -3 35 c-2 19 -1 41 1 47 3 7
82 56 175 109 94 54 212 122 263 152 51 30 96 55 100 55 3 0 6 -19 5 -42z
m-2156 -179 c96 -55 200 -114 230 -131 30 -17 75 -43 98 -58 l44 -27 -37 -22
c-20 -11 -38 -21 -40 -21 -3 0 -538 309 -543 314 -3 4 58 44 68 45 3 1 84 -44
180 -100z m1271 -54 c140 -81 258 -150 262 -155 5 -4 -7 -17 -27 -29 l-35 -22
-43 24 c-201 116 -485 281 -492 288 -10 9 54 51 70 45 6 -2 125 -70 265 -151z
m1173 1 c147 -85 266 -158 266 -163 -1 -4 -16 -16 -33 -26 l-32 -18 -268 155
c-147 85 -267 158 -266 163 2 8 48 41 60 42 3 1 126 -68 273 -153z m-2651 37
c214 -122 443 -256 450 -263 5 -4 -8 -17 -28 -29 l-36 -21 -152 88 c-84 49
-205 119 -269 156 -65 38 -118 71 -118 75 0 7 51 40 63 41 4 0 45 -21 90 -47z
m1279 -59 c100 -58 223 -129 271 -156 l89 -50 -38 -23 c-35 -21 -41 -22 -65
-10 -31 17 -512 295 -518 300 -4 4 60 45 71 45 3 0 89 -48 190 -106z m1244
-40 c139 -80 260 -151 270 -159 16 -11 15 -14 -22 -33 l-39 -20 -90 52 c-50
29 -170 99 -267 155 -98 57 -178 106 -178 110 0 8 51 40 64 41 5 0 123 -66
262 -146z m-2454 -75 c145 -84 265 -154 267 -156 7 -5 -31 -32 -55 -39 -16 -4
-86 32 -260 132 -132 76 -251 145 -266 153 -16 9 -28 18 -28 21 0 7 53 38 67
39 7 1 131 -67 275 -150z m1018 90 c58 -33 168 -97 245 -141 77 -44 151 -87
164 -95 l23 -15 -31 -19 c-17 -10 -38 -19 -45 -19 -11 0 -439 242 -525 297
l-24 16 34 18 c19 10 39 18 44 19 6 0 57 -27 115 -61z m1203 -15 c223 -129
392 -227 396 -231 7 -5 -32 -32 -56 -39 -16 -4 -90 34 -287 148 -146 84 -266
155 -266 158 0 8 53 39 68 40 7 0 72 -34 145 -76z m-2125 -266 c28 -16 52 -33
52 -37 0 -4 -15 -16 -34 -26 l-33 -18 -124 70 c-286 163 -395 226 -408 238
-11 11 -7 16 24 33 l38 19 216 -125 c119 -68 240 -138 269 -154z m1015 92
c119 -69 217 -128 217 -131 0 -3 -17 -14 -39 -23 l-38 -18 -272 157 -273 158
39 22 38 22 56 -31 c31 -17 153 -87 272 -156z m1265 -52 c67 -39 122 -73 122
-77 0 -5 -15 -16 -34 -26 l-33 -18 -89 50 c-153 87 -408 234 -433 250 l-24 16
37 22 38 23 147 -85 c80 -47 201 -117 269 -155z m-2555 -17 c118 -69 214 -127
212 -130 -2 -3 -19 -14 -37 -24 l-34 -18 -273 157 -273 157 38 23 38 23 56
-32 c31 -18 154 -88 273 -156z m965 121 c64 -38 186 -108 269 -157 84 -48 150
-92 147 -96 -3 -5 -19 -16 -36 -25 -29 -15 -32 -15 -111 32 -45 26 -100 57
-122 70 -102 57 -321 186 -328 193 -6 6 46 50 61 51 2 0 56 -31 120 -68z
m1342 -97 c140 -81 256 -148 258 -150 2 -1 -14 -13 -34 -26 -34 -21 -39 -21
-63 -7 -14 8 -134 77 -266 153 -132 75 -244 141 -249 145 -13 12 66 50 84 40
8 -5 130 -74 270 -155z m-2235 -202 c46 -27 50 -33 53 -71 2 -23 0 -42 -5 -42
-10 0 -56 26 -273 152 -295 170 -265 148 -268 201 l-3 46 223 -128 c123 -71
246 -142 273 -158z m635 -31 l0 -318 -29 -17 c-16 -9 -34 -17 -40 -17 -8 0
-11 92 -11 310 l0 310 38 24 c20 14 38 25 40 25 1 1 2 -142 2 -317z m120 -39
c0 -172 -3 -313 -7 -313 -5 0 -23 9 -40 20 l-33 20 0 315 0 316 40 -22 40 -23
0 -313z m1053 267 c-12 -11 -530 -310 -537 -310 -3 0 -6 19 -6 43 l0 42 273
156 272 157 3 -40 c2 -23 0 -44 -5 -48z m472 -157 l120 -69 1 -42 c0 -23 -2
-42 -6 -42 -6 0 -45 22 -390 221 l-145 84 -3 47 -3 48 153 -89 c84 -49 207
-120 273 -158z m705 -71 l0 -318 -29 -17 c-16 -9 -34 -17 -40 -17 -8 0 -11 92
-11 310 l0 310 38 24 c20 14 38 25 40 25 1 1 2 -142 2 -317z m-3522 267 l-3
-40 -260 -151 c-143 -83 -266 -153 -272 -155 -9 -4 -13 8 -13 39 0 42 1 44 57
76 32 17 150 86 263 151 113 66 211 120 218 120 9 1 12 -11 10 -40z m3613 24
l29 -17 0 -318 0 -318 -37 23 -38 24 -3 312 c-2 223 1 311 9 311 6 0 24 -8 40
-17z m-2551 -363 l0 -308 -36 -21 c-19 -12 -37 -21 -40 -21 -2 0 -4 141 -4
314 l0 314 32 20 c18 11 36 18 40 16 4 -3 8 -144 8 -314z m350 -37 c0 -172 -3
-313 -7 -313 -5 0 -23 9 -40 20 l-33 20 0 315 0 316 40 -22 40 -23 0 -313z
m1999 43 l1 -314 -36 -21 c-19 -12 -37 -21 -40 -21 -2 0 -4 141 -4 314 l0 314
33 21 c17 11 35 21 39 21 4 0 7 -141 7 -314z m351 -43 c0 -172 -3 -313 -7
-313 -5 0 -23 9 -40 20 l-33 20 0 315 0 316 40 -22 40 -23 0 -313z m-3760 245
c0 -36 -4 -45 -28 -59 -39 -22 -506 -291 -515 -296 -4 -2 -7 16 -7 40 l0 45
213 122 c116 68 237 138 267 156 30 18 58 34 63 34 4 0 7 -19 7 -42z m320
-116 c129 -75 243 -142 252 -150 12 -10 17 -28 16 -53 -1 -22 -3 -39 -4 -39
-2 0 -43 23 -91 51 -48 28 -170 98 -270 156 l-183 105 0 44 c0 43 1 44 23 33
12 -7 128 -73 257 -147z m620 -156 l0 -314 -36 -21 c-19 -12 -37 -21 -40 -21
-2 0 -4 141 -4 314 l0 314 33 21 c17 11 35 21 40 21 4 0 7 -141 7 -314z m590
-41 c0 -173 -2 -315 -6 -315 -4 0 -22 9 -40 21 l-34 21 0 314 0 314 39 -20 40
-20 1 -315z m820 312 l0 -43 -252 -144 c-138 -80 -262 -151 -275 -158 -23 -12
-23 -12 -23 32 l0 44 268 156 c147 85 270 155 275 156 4 0 7 -19 7 -43z m241
-70 c107 -62 228 -132 269 -155 75 -43 75 -43 77 -87 1 -25 0 -45 -1 -45 -2 0
-125 69 -272 154 l-269 154 -3 46 c-2 25 -1 46 1 46 3 0 92 -51 198 -113z
m699 -201 l0 -314 -36 -21 c-19 -12 -37 -21 -40 -21 -2 0 -4 141 -4 314 l0
314 33 21 c17 11 35 21 40 21 4 0 7 -141 7 -314z m582 270 c9 -13 11 -626 2
-626 -4 0 -22 9 -40 21 l-34 21 0 314 0 315 33 -17 c17 -9 35 -22 39 -28z
m-3052 -340 l0 -314 -36 -21 c-19 -12 -37 -21 -40 -21 -2 0 -4 141 -4 314 l0
314 33 21 c17 11 35 21 40 21 4 0 7 -141 7 -314z m789 297 l31 -18 0 -318 c0
-252 -3 -317 -12 -311 -7 4 -25 16 -40 26 l-28 19 0 310 c0 181 4 309 9 309 5
0 23 -8 40 -17z m1561 -298 l0 -315 -40 -20 -40 -20 0 314 0 314 33 21 c17 11
35 21 40 21 4 0 7 -142 7 -315z m789 298 l31 -18 0 -318 c0 -252 -3 -317 -12
-311 -7 4 -26 16 -41 27 l-28 19 2 309 c0 170 5 309 9 309 5 0 22 -8 39 -17z
m-2199 -400 c0 -184 -4 -313 -9 -313 -5 0 -23 8 -40 18 l-31 17 0 318 0 318
40 -23 40 -23 0 -312z m590 313 l0 -45 -117 -69 c-219 -128 -420 -242 -426
-242 -4 0 -7 19 -7 43 0 42 1 42 68 79 37 21 159 92 272 157 113 66 206 120
208 120 1 1 2 -19 2 -43z m498 -223 c92 -54 92 -54 92 -94 0 -30 -4 -40 -14
-37 -8 2 -132 71 -275 153 l-260 150 -1 47 0 47 183 -106 c100 -59 224 -131
275 -160z m202 -51 l0 -318 -29 -17 c-16 -9 -34 -17 -40 -17 -7 0 -10 102 -11
310 l0 309 37 25 c21 14 39 25 41 25 1 1 2 -142 2 -317z m1060 -44 l0 -316
-40 21 -40 22 0 318 0 318 40 -23 40 -23 0 -317z m-4112 310 l-3 -41 -265
-153 c-146 -85 -269 -154 -273 -154 -5 0 -7 19 -5 42 l3 43 260 151 c143 84
266 152 273 153 9 1 12 -11 10 -41z m324 -113 c139 -81 255 -148 257 -151 9
-8 9 -84 0 -84 -5 0 -64 32 -132 71 -67 39 -186 108 -264 152 l-142 82 -1 44
c0 34 3 42 15 38 7 -3 128 -72 267 -152z m378 -160 l0 -314 -30 -16 c-16 -8
-33 -15 -38 -15 -5 0 -10 129 -11 309 l-1 309 32 21 c18 11 36 21 41 21 4 0 7
-142 7 -315z m-700 142 l0 -43 -162 -94 c-90 -51 -212 -122 -271 -157 -60 -34
-111 -63 -113 -63 -2 0 -4 19 -4 43 l0 43 223 129 c122 70 242 141 267 156 25
15 48 28 53 28 4 1 7 -18 7 -42z m310 -111 c295 -170 281 -159 278 -206 -1
-24 -6 -39 -12 -37 -6 3 -128 72 -271 155 l-260 150 -3 47 -3 47 53 -30 c29
-17 127 -73 218 -126z m2040 111 l0 -43 -87 -51 c-168 -98 -456 -263 -459
-263 -2 0 -4 19 -4 43 l0 43 268 156 c147 86 270 157 275 157 4 1 7 -18 7 -42z
m260 -82 c347 -199 325 -184 327 -234 2 -31 -1 -42 -10 -38 -6 2 -129 72 -272
155 l-260 150 -3 47 c-2 26 0 45 5 42 4 -2 100 -57 213 -122z m-2612 -57 l-3
-43 -264 -152 c-145 -84 -268 -153 -273 -153 -5 0 -8 19 -6 42 l3 42 180 104
c320 185 349 202 358 202 4 0 7 -19 5 -42z m264 -81 c117 -68 239 -138 271
-156 47 -27 57 -37 57 -59 -1 -62 -9 -60 -171 35 -85 49 -205 118 -266 154
l-113 64 0 42 c0 24 2 43 5 43 2 0 100 -55 217 -123z m2086 81 l-3 -43 -264
-152 c-145 -84 -267 -153 -273 -153 -5 0 -8 19 -6 42 l3 42 115 66 c63 37 183
106 265 153 83 48 154 87 158 87 5 0 7 -19 5 -42z m321 -113 l268 -156 0 -39
c0 -22 -4 -40 -9 -40 -5 0 -47 23 -94 50 -47 28 -86 50 -88 50 -2 0 -60 33
-127 73 -68 40 -148 86 -176 102 -51 27 -53 30 -53 72 0 23 2 43 5 43 4 0 127
-70 274 -155z m-2610 14 c18 -11 32 -22 30 -23 -8 -7 -475 -277 -524 -304 -16
-8 -28 -6 -58 13 l-38 22 123 71 c68 38 190 109 272 156 83 47 152 86 155 86
4 0 21 -9 40 -21z m1172 0 l41 -20 -234 -135 c-128 -75 -251 -146 -273 -159
l-40 -23 -38 19 c-20 11 -37 21 -37 24 0 2 48 32 108 67 168 98 427 247 430
248 1 0 21 -9 43 -21z m1178 0 c40 -24 49 -15 -119 -111 -63 -37 -178 -102
-254 -147 l-140 -81 -30 20 c-17 10 -32 23 -33 27 -2 7 523 313 537 313 3 0
20 -9 39 -21z m1176 0 l36 -21 -208 -121 c-114 -66 -238 -137 -275 -158 l-67
-39 -36 21 c-20 12 -33 25 -28 30 11 11 527 309 535 309 4 0 23 -10 43 -21z
m-3415 -64 c17 -9 30 -20 30 -24 0 -8 -121 -81 -441 -263 l-96 -55 -38 22 -37
23 93 55 c234 137 445 257 452 257 4 0 21 -7 37 -15z m1179 -2 c17 -10 31 -21
31 -24 0 -3 -24 -19 -52 -34 -29 -16 -151 -86 -271 -156 l-219 -127 -34 20
c-19 11 -34 23 -34 26 0 9 521 310 537 311 6 1 25 -7 42 -16z m1172 1 c17 -8
29 -20 27 -25 -2 -6 -123 -79 -268 -163 l-265 -153 -37 21 c-20 11 -34 24 -30
28 12 11 526 308 535 308 4 0 22 -7 38 -16z m1178 -1 c17 -10 31 -20 31 -23 0
-3 -28 -22 -62 -42 -35 -20 -154 -88 -265 -153 -150 -87 -209 -116 -225 -112
-27 7 -65 33 -58 40 3 2 113 66 245 142 132 76 249 144 260 151 26 18 37 18
74 -3z m-1021 -89 c3 -2 -44 -29 -407 -239 l-134 -77 -38 18 c-22 9 -39 20
-39 23 0 4 26 21 58 39 31 17 153 88 271 156 l214 123 36 -20 c20 -11 37 -22
39 -23z m1160 -10 c-7 -6 -119 -72 -248 -146 -129 -74 -245 -141 -257 -149
-20 -12 -27 -11 -58 5 -20 11 -34 23 -33 28 2 4 122 77 268 162 l265 153 38
-20 c30 -17 35 -23 25 -33z m-3539 27 l34 -18 -84 -48 c-46 -27 -169 -98 -273
-158 l-189 -109 -38 18 c-22 9 -39 20 -39 23 0 3 42 30 93 59 50 28 169 97
262 151 94 55 177 100 185 100 8 0 30 -8 49 -18z m1175 0 l28 -19 -23 -15
c-46 -29 -479 -277 -502 -288 -19 -9 -31 -7 -61 9 -35 19 -36 22 -20 32 173
104 522 300 534 300 8 0 28 -9 44 -19z m-1067 -62 c28 -18 32 -24 21 -34 -7
-7 -129 -78 -270 -159 -257 -147 -257 -147 -287 -132 -16 9 -32 20 -35 25 -3
5 47 39 112 77 64 37 185 107 267 155 83 48 152 88 154 88 2 1 19 -9 38 -20z
m1207 -29 c-5 -4 -117 -70 -249 -146 -132 -75 -252 -144 -266 -153 -24 -13
-29 -13 -64 9 -27 17 -33 25 -24 31 8 4 131 75 273 158 l259 150 40 -20 c21
-11 35 -24 31 -29z m1143 29 c28 -18 32 -24 21 -34 -7 -6 -110 -67 -228 -135
-118 -68 -234 -134 -257 -147 -39 -23 -43 -23 -72 -9 -16 9 -32 20 -36 25 -3
5 54 44 127 85 73 42 194 111 268 155 74 44 137 80 139 80 2 1 19 -9 38 -20z
m1207 -29 c-5 -4 -117 -70 -249 -146 -132 -75 -252 -144 -266 -153 -24 -13
-29 -13 -64 9 -31 19 -35 24 -21 32 10 5 132 76 273 158 l256 149 40 -20 c22
-12 35 -24 31 -29z m-3438 -41 c19 -11 34 -22 34 -24 0 -1 -42 -26 -92 -56
-51 -29 -173 -99 -271 -156 l-178 -103 -40 22 c-21 12 -38 23 -36 24 1 1 117
68 257 149 140 81 259 151 265 156 14 13 24 11 61 -12z m1169 4 c19 -9 35 -20
35 -24 0 -4 -42 -32 -92 -62 -118 -69 -350 -203 -405 -234 l-41 -24 -34 21
c-18 11 -33 22 -33 25 0 5 520 312 532 314 1 1 18 -7 38 -16z m1179 -4 c20
-12 36 -22 36 -24 0 -1 -42 -26 -92 -55 -51 -30 -173 -100 -270 -157 l-178
-103 -41 20 c-22 12 -39 23 -37 25 1 1 107 63 233 135 127 73 248 144 270 156
22 13 41 24 42 24 1 0 18 -9 37 -21z m1171 4 c19 -9 34 -21 32 -26 -2 -6 -123
-79 -269 -164 l-266 -153 -36 21 c-20 11 -36 22 -36 24 0 2 80 49 178 105 97
57 218 127 267 156 50 29 91 53 92 54 1 0 18 -8 38 -17z m-4515 -420 c0 -172
-3 -313 -7 -313 -5 0 -23 9 -40 20 l-33 20 0 315 0 316 40 -22 40 -23 0 -313z
m1059 42 l0 -314 -33 -21 c-18 -11 -36 -20 -40 -20 -3 0 -6 141 -6 314 l0 314
33 20 c17 11 35 21 39 21 3 1 6 -141 7 -314z m459 73 l122 -69 0 -45 c0 -24
-2 -44 -3 -44 -5 0 -438 250 -497 287 -39 24 -45 33 -46 63 -1 19 0 38 3 42 2
4 70 -32 151 -79 81 -47 202 -116 270 -155z m712 198 l0 -44 -72 -42 c-300
-174 -468 -270 -473 -270 -3 0 -5 19 -5 43 l0 42 273 157 c149 87 273 157 275
158 1 0 2 -20 2 -44z m120 -313 c0 -172 -3 -313 -7 -313 -5 0 -23 9 -40 20
l-33 20 0 315 0 316 40 -22 40 -23 0 -313z m1060 37 l-1 -309 -33 -20 c-18
-12 -36 -21 -40 -21 -3 0 -6 141 -6 314 l0 314 33 20 c17 10 35 17 40 15 4 -3
7 -143 7 -313z m256 194 c121 -69 243 -140 272 -156 50 -29 52 -31 52 -74 0
-53 25 -62 -210 74 -91 53 -196 113 -235 135 -95 54 -103 61 -103 107 -1 22 1
40 2 40 2 0 102 -57 222 -126z m907 36 c-12 -11 -530 -310 -537 -310 -3 0 -6
19 -6 43 l0 42 273 157 272 157 3 -41 c2 -22 0 -44 -5 -48z m-4453 -337 c0
-172 -3 -313 -7 -313 -5 0 -23 9 -40 20 l-33 20 0 315 0 316 40 -22 40 -23 0
-313z m820 43 l0 -314 -36 -21 c-19 -12 -37 -21 -40 -21 -2 0 -4 141 -4 314
l0 314 33 21 c17 11 35 21 40 21 4 0 7 -141 7 -314z m1530 -43 c0 -172 -3
-313 -7 -313 -5 0 -23 9 -40 20 l-33 20 0 315 0 316 40 -22 40 -23 0 -313z
m820 43 l0 -314 -36 -21 c-19 -12 -37 -21 -40 -21 -2 0 -4 141 -4 314 l0 314
33 21 c17 11 35 21 40 21 4 0 7 -141 7 -314z m-3095 227 l35 -17 0 -318 c0
-253 -3 -318 -12 -312 -7 4 -26 16 -41 27 l-28 19 1 309 c1 170 3 309 5 309 3
0 20 -8 40 -17z m625 -297 l0 -314 -36 -21 c-19 -12 -37 -21 -40 -21 -2 0 -4
141 -4 314 l0 314 33 21 c17 11 35 21 40 21 4 0 7 -141 7 -314z m550 162 c135
-78 251 -146 258 -153 8 -7 12 -28 10 -52 l-3 -41 -175 102 c-96 56 -218 127
-270 157 l-95 55 -1 43 c-2 35 1 41 15 36 9 -3 126 -69 261 -147z m860 110 l0
-43 -223 -128 c-122 -70 -246 -141 -274 -158 l-53 -31 0 45 0 45 213 122 c116
68 237 138 267 156 30 19 58 34 63 34 4 0 7 -19 7 -42z m315 25 l35 -17 0
-318 c0 -253 -3 -318 -12 -312 -7 4 -25 16 -41 26 l-27 20 0 309 c1 170 3 309
5 309 2 0 20 -8 40 -17z m625 -297 l0 -314 -36 -21 c-19 -12 -37 -21 -40 -21
-2 0 -4 141 -4 314 l0 314 33 21 c17 11 35 21 40 21 4 0 7 -141 7 -314z m464
211 c88 -51 203 -117 256 -147 l95 -55 3 -48 c3 -44 2 -47 -15 -38 -10 6 -133
77 -273 158 l-255 148 -3 44 c-4 54 -15 57 192 -62z m946 60 l0 -43 -217 -124
c-120 -69 -244 -140 -276 -158 l-58 -34 3 47 3 46 265 154 c146 85 268 154
273 155 4 0 7 -19 7 -43z m-4261 -44 l31 -18 0 -317 0 -316 -40 21 -40 22 0
313 c0 183 4 312 9 312 5 0 23 -8 40 -17z m381 -297 l0 -314 -34 -20 c-19 -11
-37 -18 -40 -15 -3 3 -5 144 -6 314 l-1 309 33 20 c18 11 36 20 41 20 4 0 7
-141 7 -314z m1969 297 l31 -18 0 -317 0 -316 -40 21 -40 22 0 313 c0 183 4
312 9 312 5 0 23 -8 40 -17z m381 -296 l0 -313 -29 -17 c-16 -9 -34 -17 -40
-17 -7 0 -10 102 -11 310 l0 310 32 20 c18 11 36 20 41 20 4 0 7 -141 7 -313z
m-2580 -104 c0 -184 -4 -313 -9 -313 -5 0 -23 8 -40 18 l-31 17 0 318 0 318
40 -23 40 -23 0 -312z m1013 134 l157 -91 0 -44 c0 -24 -4 -42 -8 -40 -8 3
-522 298 -531 304 -6 5 -11 68 -6 81 3 9 42 -9 117 -53 62 -37 184 -107 271
-157z m747 179 l0 -45 -92 -54 c-193 -113 -429 -248 -444 -254 -13 -5 -15 2
-12 38 l3 44 270 157 c149 86 271 157 273 157 1 1 2 -19 2 -43z m590 -313 c0
-172 -2 -313 -5 -313 -2 0 -20 8 -40 17 l-35 17 0 318 0 319 40 -23 40 -23 0
-312z m119 43 l2 -314 -34 -21 c-19 -12 -37 -21 -41 -21 -3 0 -6 141 -6 313
l0 312 33 22 c17 12 35 22 39 22 3 1 7 -140 7 -313z m1051 -43 c0 -24 -2 -43
-5 -43 -3 0 -113 63 -245 140 -132 76 -253 146 -270 155 -25 13 -29 21 -28 53
0 20 2 40 4 44 2 3 126 -64 274 -150 l270 -156 0 -43z m583 266 c-10 -9 -508
-298 -528 -306 -12 -4 -15 4 -15 36 0 37 4 44 37 64 20 12 143 83 273 158
l235 136 3 -40 c2 -22 0 -43 -5 -48z m-3983 -228 l0 -309 -34 -21 c-18 -12
-36 -21 -40 -21 -3 0 -6 142 -6 315 l0 314 28 15 c54 30 52 40 52 -293z m733
52 c350 -202 317 -178 317 -230 l0 -45 -32 20 c-18 11 -136 79 -263 152 -126
73 -236 137 -242 142 -7 6 -13 28 -13 50 0 33 3 39 16 34 9 -3 107 -58 217
-123z m907 84 c0 -42 -1 -44 -62 -79 -35 -20 -157 -90 -272 -157 -114 -67
-210 -121 -213 -121 -2 0 -3 20 -1 45 l3 45 265 154 c146 85 268 155 273 155
4 1 7 -18 7 -42z m1490 -111 l265 -153 3 -48 3 -47 -33 19 c-18 11 -125 73
-238 138 -298 171 -278 156 -277 204 0 23 3 41 6 41 3 0 125 -69 271 -154z
m860 111 l0 -42 -162 -94 c-90 -52 -212 -123 -271 -158 -60 -35 -111 -63 -113
-63 -2 0 -4 19 -4 43 l0 44 137 79 c75 43 195 113 267 155 72 43 134 77 139
78 4 1 7 -18 7 -42z m-3267 -214 c111 -64 230 -132 264 -152 62 -35 63 -37 63
-78 0 -24 -3 -43 -7 -43 -4 0 -52 26 -107 59 -104 61 -305 177 -388 225 -45
25 -48 30 -48 66 0 22 5 40 10 40 6 0 102 -53 213 -117z m917 77 c0 -47 35
-22 -310 -221 -123 -71 -228 -129 -233 -129 -4 0 -7 19 -5 42 3 41 4 43 88 91
364 211 446 257 453 257 4 0 7 -18 7 -40z m1419 -68 c102 -60 221 -128 263
-153 78 -44 78 -44 78 -86 0 -24 -2 -43 -5 -43 -3 0 -96 53 -208 117 -111 64
-231 133 -267 154 -52 29 -66 42 -68 64 -4 28 3 55 14 55 3 0 90 -49 193 -108z
m929 66 l-3 -43 -265 -152 c-146 -84 -269 -153 -273 -153 -5 0 -7 19 -5 42 l3
42 265 153 c146 84 269 153 273 153 5 0 7 -19 5 -42z m-3284 -199 c116 -67
237 -137 269 -156 l58 -35 -37 -23 -37 -22 -107 61 c-59 33 -182 104 -273 156
-92 52 -166 98 -167 101 0 6 60 37 74 38 5 1 104 -54 220 -120z m1058 67 c51
-29 170 -97 263 -151 94 -54 172 -100 175 -102 7 -7 -31 -33 -57 -39 -16 -4
-63 17 -165 77 -79 45 -198 114 -265 153 -68 38 -123 73 -123 76 0 6 59 38 72
39 4 1 49 -23 100 -53z m1172 2 c50 -28 127 -73 171 -98 44 -26 124 -73 178
-105 l99 -57 -33 -20 c-18 -11 -41 -17 -53 -14 -12 3 -109 56 -216 119 -108
63 -224 129 -258 148 -34 19 -62 37 -62 40 0 6 60 37 74 38 5 1 50 -22 100
-51z m-2241 -198 c119 -69 217 -128 217 -131 0 -3 -18 -14 -39 -24 l-39 -17
-266 153 c-146 85 -266 157 -266 161 0 3 15 15 33 26 l32 19 55 -31 c31 -17
154 -87 273 -156z m1387 -132 c0 -4 -14 -15 -31 -24 -26 -13 -37 -14 -57 -4
-25 11 -453 257 -501 287 l-24 16 37 22 37 23 270 -156 c148 -86 269 -159 269
-164z m963 132 c119 -69 217 -128 217 -131 0 -3 -17 -14 -39 -23 l-38 -18
-267 153 c-146 85 -266 157 -266 160 0 4 15 16 33 26 l32 20 55 -31 c31 -17
153 -87 273 -156z m-2646 34 c81 -47 203 -117 271 -156 67 -38 122 -73 122
-77 0 -4 -16 -15 -36 -24 l-36 -18 -249 143 c-137 79 -258 150 -270 159 -21
16 -21 16 12 37 19 11 35 21 36 21 1 1 68 -38 150 -85z m1208 -19 c94 -54 214
-124 268 -155 l99 -57 -35 -22 c-19 -11 -37 -21 -41 -21 -5 0 -101 55 -465
265 l-83 48 38 23 c21 13 40 22 43 20 3 -2 83 -47 176 -101z m1264 -51 c149
-86 271 -159 271 -163 0 -9 -69 -43 -78 -38 -64 34 -511 293 -520 302 -11 10
-7 16 20 33 18 11 34 21 35 21 1 1 123 -69 272 -155z m-2614 17 c55 -32 169
-99 254 -148 84 -49 154 -93 154 -98 0 -6 -14 -18 -30 -28 l-31 -17 -263 151
c-145 84 -268 155 -272 159 -12 10 55 51 73 44 8 -3 60 -31 115 -63z m1233
-34 c98 -57 219 -127 270 -156 50 -29 92 -54 92 -56 0 -2 -16 -13 -36 -24
l-36 -22 -112 65 c-61 35 -183 105 -271 156 -88 50 -162 93 -163 95 -3 3 66
43 76 45 2 0 83 -46 180 -103z m1260 -49 c145 -84 264 -157 264 -163 1 -5 -13
-18 -29 -28 l-31 -17 -218 126 c-121 69 -243 140 -271 156 -29 16 -53 31 -53
33 0 4 63 45 70 45 3 0 124 -69 268 -152z m-2525 -34 c111 -64 233 -135 270
-157 l68 -40 -38 -23 c-21 -12 -40 -21 -43 -19 -166 95 -536 308 -538 310 -4
3 61 45 71 45 4 0 99 -52 210 -116z m1178 -2 c112 -65 230 -133 261 -151 32
-18 60 -36 63 -41 3 -4 -11 -17 -30 -29 l-35 -20 -177 103 c-98 56 -220 126
-270 156 -51 29 -93 55 -93 59 0 8 51 39 66 40 7 1 103 -52 215 -117z m1240
-38 l270 -157 -38 -22 -37 -23 -41 23 c-64 36 -500 287 -503 290 -4 4 61 45
71 45 5 0 130 -70 278 -156z m-2761 -238 l0 -314 -34 -21 c-18 -12 -36 -21
-40 -21 -3 0 -6 141 -6 314 l0 314 33 21 c17 11 35 21 40 21 4 0 7 -141 7
-314z m119 -43 c0 -172 -4 -313 -7 -313 -4 0 -22 9 -39 20 l-33 20 0 315 0
316 40 -22 41 -23 -2 -313z m1051 313 l0 -44 -212 -122 c-117 -68 -239 -138
-271 -156 -62 -36 -72 -33 -65 23 3 24 19 37 123 99 159 94 419 244 422 244 2
0 3 -20 3 -44z m167 -24 c65 -38 187 -108 271 -156 l152 -88 0 -45 0 -45 -42
24 c-24 13 -135 78 -248 143 -113 65 -217 126 -232 134 -24 14 -28 23 -28 59
0 23 2 42 5 42 2 0 57 -31 122 -68z m1013 -246 l0 -314 -36 -21 c-19 -12 -37
-21 -40 -21 -2 0 -4 141 -4 314 l0 314 33 20 c17 11 35 21 40 21 4 1 7 -140 7
-313z m120 -41 c-1 -173 -4 -315 -8 -315 -4 0 -22 9 -39 20 l-33 20 0 315 0
315 40 -20 40 -21 0 -314z m1043 265 c-8 -8 -532 -310 -537 -310 -1 0 -3 17
-4 39 -2 25 3 43 13 51 9 8 132 80 273 161 l257 148 3 -41 c2 -22 0 -44 -5
-48z m327 -66 l270 -157 0 -44 0 -45 -42 24 c-24 14 -148 85 -275 158 l-233
134 0 43 c0 24 2 43 5 43 3 0 127 -70 275 -156z m-3960 -228 l0 -314 -36 -21
c-19 -12 -37 -21 -40 -21 -2 0 -4 141 -4 314 l0 314 33 21 c17 11 35 21 40 21
4 0 7 -141 7 -314z m315 297 l35 -17 0 -318 0 -319 -22 12 c-61 31 -59 14 -58
351 1 169 3 308 5 308 2 0 20 -8 40 -17z m2035 -297 l0 -314 -36 -21 c-19 -12
-37 -21 -40 -21 -2 0 -4 141 -4 314 l0 314 33 21 c17 11 35 21 40 21 4 0 7
-141 7 -314z m318 294 l32 -20 0 -315 0 -316 -22 12 c-61 31 -58 14 -58 351 0
169 3 308 8 308 4 0 22 -9 40 -20z m-2788 -364 l0 -314 -34 -20 c-19 -11 -37
-18 -40 -15 -3 4 -6 145 -6 315 l0 308 33 20 c17 11 35 20 40 20 4 0 7 -141 7
-314z m555 297 l35 -17 0 -318 0 -318 -37 23 -38 24 -3 312 c-1 171 0 311 3
311 2 0 20 -8 40 -17z m855 -25 c0 -39 -3 -45 -38 -64 -20 -11 -140 -80 -265
-152 -126 -73 -232 -132 -238 -132 -5 0 -8 18 -7 40 l1 40 136 79 c75 43 195
113 266 155 72 41 133 75 138 76 4 0 7 -19 7 -42z m83 26 c18 -9 96 -54 174
-100 77 -45 167 -97 200 -115 129 -71 133 -75 133 -120 0 -35 -3 -40 -17 -35
-16 6 -84 45 -448 255 -78 46 -80 48 -83 89 -2 23 0 42 3 42 3 0 20 -7 38 -16z
m857 -299 l0 -314 -30 -16 c-17 -9 -35 -13 -40 -10 -6 4 -10 125 -10 311 l0
304 33 20 c17 11 35 20 40 20 4 0 7 -142 7 -315z m555 298 l35 -17 0 -318 0
-319 -40 23 -40 23 0 313 c0 171 2 312 5 312 2 0 20 -8 40 -17z m855 -26 c0
-41 -3 -45 -42 -67 -24 -13 -143 -81 -265 -152 -123 -70 -227 -128 -232 -128
-4 0 -8 18 -8 40 l0 40 201 117 c110 64 230 133 266 154 36 21 68 38 73 39 4
0 7 -19 7 -43z m176 -26 c65 -38 184 -106 264 -153 l145 -84 3 -42 c2 -23 0
-42 -5 -42 -4 0 -127 69 -273 153 l-265 153 -3 42 c-2 23 1 42 5 42 5 0 63
-31 129 -69z m-3226 -353 l0 -316 -40 21 -40 22 0 318 0 318 40 -23 40 -23 0
-317z m1530 42 l-1 -309 -33 -20 c-18 -12 -36 -21 -40 -21 -3 0 -6 141 -6 314
l0 314 33 20 c17 10 35 17 40 15 4 -2 7 -143 7 -313z m820 -37 c0 -172 -2
-313 -5 -313 -2 0 -20 8 -40 17 l-35 17 0 318 0 319 40 -23 40 -23 0 -312z
m-3171 38 l1 -310 -34 -20 c-18 -12 -36 -21 -40 -21 -3 0 -6 142 -6 315 l0
314 28 15 c15 8 32 15 39 16 9 0 12 -79 12 -309z m-119 -65 l0 -314 -34 -21
c-18 -12 -36 -21 -40 -21 -3 0 -6 141 -6 314 l0 314 33 20 c17 11 35 21 40 21
4 1 7 -140 7 -313z m1047 272 c10 -12 17 -628 8 -628 -3 0 -20 8 -40 17 l-35
17 0 318 0 319 28 -15 c16 -8 33 -21 39 -28z m586 -49 c-9 -8 -510 -298 -529
-306 -8 -3 -11 10 -10 39 l1 43 175 103 c96 57 182 106 190 109 8 4 51 29 95
55 l80 48 3 -41 c2 -23 0 -45 -5 -50z m330 -68 l267 -154 0 -44 c0 -23 -2 -43
-4 -43 -3 0 -71 39 -153 86 -81 47 -203 118 -270 156 l-123 70 0 45 c0 25 4
43 8 41 4 -1 128 -72 275 -157z m387 -155 l0 -314 -34 -21 c-18 -12 -36 -21
-40 -21 -3 0 -6 141 -6 314 l0 314 33 20 c17 11 35 21 40 21 4 1 7 -140 7
-313z m1032 282 l27 -19 0 -309 c0 -171 -2 -310 -4 -310 -2 0 -20 8 -40 17
l-35 17 0 318 c0 253 3 318 13 312 6 -4 24 -16 39 -26z m601 -59 c-4 -4 -80
-49 -168 -100 -88 -50 -206 -118 -261 -150 -56 -33 -105 -59 -108 -59 -3 0 -6
18 -6 40 0 47 -30 25 295 214 l250 144 3 -40 c2 -22 0 -44 -5 -49z m330 -68
l267 -154 0 -44 c0 -25 -4 -43 -8 -41 -5 2 -129 72 -275 157 l-267 154 0 44
c0 25 4 43 8 41 5 -1 129 -72 275 -157z m-2673 -23 c-1 -41 -3 -44 -53 -74
-146 -87 -473 -273 -482 -273 -5 -1 -11 17 -12 38 l-1 40 246 141 c136 78 256
148 267 156 31 20 35 17 35 -28z m320 -112 l265 -153 3 -46 3 -47 -93 53 c-98
56 -318 183 -403 234 -46 27 -50 33 -53 71 -2 23 0 42 5 42 4 0 127 -69 273
-154z m2030 111 l0 -42 -264 -153 c-145 -83 -269 -152 -275 -152 -6 0 -11 17
-11 39 l0 39 248 142 c136 78 256 148 267 156 31 20 35 17 35 -29z m301 -100
c318 -183 291 -163 287 -214 l-3 -41 -270 157 -270 156 -3 43 c-2 23 0 42 5
42 4 0 119 -65 254 -143z m-2672 -87 c-41 -28 -514 -300 -522 -300 -5 0 -7 19
-5 42 l3 43 270 156 270 156 3 -41 c3 -33 -1 -44 -19 -56z m394 -90 l217 -125
0 -42 c0 -24 -2 -43 -5 -43 -2 0 -76 41 -162 91 -87 50 -209 120 -270 156
l-113 65 0 44 0 45 58 -33 c32 -18 156 -89 275 -158z m1974 106 c-4 -11 -525
-316 -539 -316 -3 0 -5 19 -4 42 l1 42 270 156 270 157 3 -35 c2 -19 1 -40 -1
-46z m244 -29 c107 -62 229 -133 271 -158 78 -44 78 -44 78 -86 0 -24 -3 -43
-6 -43 -3 0 -108 59 -232 131 -125 72 -246 142 -269 156 -41 22 -43 26 -43 68
0 25 1 45 3 45 2 0 91 -51 198 -113z"/>
</g>
</svg>
