<?xml version="1.0" encoding="iso-8859-1"?>
<!-- Generator: Adobe Illustrator 19.0.0, SVG Export Plug-In . SVG Version: 6.00 Build 0)  -->
<svg version="1.1" id="Layer_1" xmlns="http://www.w3.org/2000/svg" xmlns:xlink="http://www.w3.org/1999/xlink" x="0px" y="0px"
	 viewBox="0 0 512 512" style="enable-background:new 0 0 512 512;" xml:space="preserve">
<path style="fill:#9ED368;" d="M512,256.006C512,397.402,397.394,512.004,256.004,512C114.606,512.004,0,397.402,0,256.006
	C-0.007,114.61,114.606,0,256.004,0C397.394,0,512,114.614,512,256.006z"/>
<path style="fill:#8BC052;" d="M511.691,268.217c-0.205-0.206-131.23-131.202-131.732-131.698c-0.494-0.499-0.988-0.993-1.488-1.488
	C347.219,103.394,303.875,83.729,256,83.729c-94.989,0-172.27,77.282-172.27,172.271c0,47.874,19.663,91.216,51.297,122.467
	c0.495,0.502,131.879,131.942,132.13,132.193c0.143,0.144,0.298,0.274,0.442,0.417c0.205,0.206,0.413,0.41,0.619,0.614
	C399.886,505.509,505.506,399.889,511.691,268.217z"/>
<g>
	<path style="fill:#F4F6F9;" d="M256,83.73c-94.989,0-172.27,77.282-172.27,172.27S161.011,428.271,256,428.271
		S428.27,350.989,428.27,256S350.989,83.73,256,83.73z M256,413.915c-87.074,0-157.915-70.841-157.915-157.915
		S168.926,98.085,256,98.085S413.915,168.926,413.915,256S343.074,413.915,256,413.915z"/>
	<path style="fill:#F4F6F9;" d="M234.466,184.221h-35.89c-3.964,0-7.178,3.211-7.178,7.178v136.381c0,3.968,3.214,7.178,7.178,7.178
		h35.89c3.964,0,7.178-3.211,7.178-7.178V191.398C241.644,187.431,238.43,184.221,234.466,184.221z M227.289,320.602h-21.534
		V198.577h21.534V320.602z"/>
	<path style="fill:#F4F6F9;" d="M313.424,184.221h-35.89c-3.964,0-7.178,3.211-7.178,7.178v136.381c0,3.968,3.214,7.178,7.178,7.178
		h35.89c3.964,0,7.178-3.211,7.178-7.178V191.398C320.602,187.431,317.388,184.221,313.424,184.221z M306.245,320.602h-21.534
		V198.577h21.534V320.602z"/>
</g>
<g>
</g>
<g>
</g>
<g>
</g>
<g>
</g>
<g>
</g>
<g>
</g>
<g>
</g>
<g>
</g>
<g>
</g>
<g>
</g>
<g>
</g>
<g>
</g>
<g>
</g>
<g>
</g>
<g>
</g>
</svg>
